<svg xmlns="http://www.w3.org/2000/svg" xmlns:xlink="http://www.w3.org/1999/xlink" xmlns:svgjs="http://svgjs.dev/svgjs" id="Icon" viewBox="0 0 64 64" width="300" height="300"><g width="100%" height="100%" transform="matrix(1,0,0,1,0,0)"><path d="m61.55987 40.28955c-.91602-1.71191-2.95703-2.43945-4.74609-1.68848l-.47742.19977c-.02765-.60309-.19769-1.20636-.5509-1.74567-1.03711-1.58301-3.11719-2.05566-4.73633-1.07227l-14.43976 8.7677c-3.0932-2.07379-7.08588-4.54376-10.88837-6.28235-6.46509-2.95581-12.47943-.21991-14.9364 1.2168l-.20325-.55664c-.30371-.83105-.91211-1.49316-1.71387-1.86621-.80176-.37207-1.70117-.41113-2.53027-.10742l-2.15918.78809c-.83105.30371-1.49316.91211-1.86621 1.71289-.37305.80176-.41113 1.70117-.1084 2.53125l5.57227 15.25977c.30371.83105.91211 1.49316 1.71289 1.86621.44434.20703.91895.31055 1.39453.31055.38281 0 .7666-.06738 1.13672-.20215l2.16016-.78809c1.71387-.62793 2.59961-2.53223 1.97363-4.24512l-.20587-.56384 13.56818 6.65857c2.08496 1.02344 4.31348 1.52344 6.52344 1.52344 3.56445 0 7.08008-1.30078 9.8623-3.80664l14.59961-13.14844c1.4707-1.10059 1.92773-3.13672 1.05859-4.76172zm-2.27832 3.17676c-.02832.02051-14.71777 13.24707-14.71777 13.24707-3.89844 3.51074-9.45996 4.28418-14.16699 1.97461l-15.37305-7.54492-3.53918-9.5412c1.89807-1.14832 7.54785-3.99219 13.40442-1.31525 5.25739 2.4035 10.93658 6.27991 13.91315 8.42242.82336.59271 1.21497 1.67529.83929 2.61761-.4884 1.2251-1.87769 1.72736-3.01904 1.14355l-11.90234-6.10156c-.49023-.25293-1.09375-.05762-1.3457.43359s-.05762 1.09375.43359 1.3457l11.90234 6.10156c2.0412 1.04767 4.51117.27698 5.59161-1.75592 1.00067-1.88269.30457-4.23505-1.42786-5.47791-.43311-.31079-.92328-.65747-1.45282-1.02637l13.66504-8.29645c.71692-.43561 1.64093-.2049 2.06708.52545.40796.69928.11792 1.60693-.55627 2.05505l-9.07623 6.03278c-.45996.30566-.58496.92676-.2793 1.38672.19238.29004.51074.44629.83398.44629.19043 0 .38281-.05371.55273-.16699 0 0 6.38208-4.27289 8.82983-5.94952.66486-.45544 1.37225-.84161 2.1156-1.15289l.91998-.38519c.6803-.28485 1.49878-.18146 2.01086.34924.7663.79431.6087 2.02985-.22296 2.63251z" fill="#e09900" fill-opacity="1" data-original-color="#000000ff" stroke="none" stroke-opacity="1"></path><path d="m36.05218 15.32666h-8.09985l4.04992 19.24609z" fill="#e09900" fill-opacity="1" data-original-color="#000000ff" stroke="none" stroke-opacity="1"></path><path d="m30.89892 2.99384-.46618-1.00019h-9.16407l5.39081 10.09571z" fill="#e09900" fill-opacity="1" data-original-color="#000000ff" stroke="none" stroke-opacity="1"></path><path d="m19.54382 3.00812-5.15973 10.31854h10.66888z" fill="#e09900" fill-opacity="1" data-original-color="#000000ff" stroke="none" stroke-opacity="1"></path><path d="m44.42407 1.99365h-10.8523l-.46618 1.00019 4.34002 9.31134z" fill="#e09900" fill-opacity="1" data-original-color="#000000ff" stroke="none" stroke-opacity="1"></path><path d="m49.70648 13.32666-3.64014-10.19147-6.89758 10.19147z" fill="#e09900" fill-opacity="1" data-original-color="#000000ff" stroke="none" stroke-opacity="1"></path><path d="m38.09594 15.32666-4.01086 19.06067 15.39496-19.06067z" fill="#e09900" fill-opacity="1" data-original-color="#000000ff" stroke="none" stroke-opacity="1"></path><path d="m35.71502 13.32666-3.71277-7.96564-3.71276 7.96564z" fill="#e09900" fill-opacity="1" data-original-color="#000000ff" stroke="none" stroke-opacity="1"></path><path d="m14.52447 15.32666 15.39496 19.06067-4.01086-19.06067z" fill="#e09900" fill-opacity="1" data-original-color="#000000ff" stroke="none" stroke-opacity="1"></path></g></svg>